<mxfile host="app.diagrams.net" modified="2021-08-03T07:19:22.791Z" agent="5.0 (Windows NT 10.0; Win64; x64) AppleWebKit/537.36 (KHTML, like Gecko) Chrome/91.0.4472.164 Safari/537.36" etag="hOvZY0Q37JoA2eQicZNe" version="14.9.3" type="github">
  <diagram id="vW-9N8U3HAckT5fQ7kHU" name="Page-1">
    <mxGraphModel dx="1718" dy="520" grid="1" gridSize="10" guides="1" tooltips="1" connect="1" arrows="1" fold="1" page="1" pageScale="1" pageWidth="850" pageHeight="1100" math="0" shadow="0">
      <root>
        <mxCell id="0" />
        <mxCell id="1" parent="0" />
        <mxCell id="a2oSXQ1qvIxGom9sK-s8-15" value="" style="edgeStyle=orthogonalEdgeStyle;rounded=0;orthogonalLoop=1;jettySize=auto;html=1;" edge="1" parent="1" source="a2oSXQ1qvIxGom9sK-s8-4" target="a2oSXQ1qvIxGom9sK-s8-14">
          <mxGeometry relative="1" as="geometry" />
        </mxCell>
        <mxCell id="a2oSXQ1qvIxGom9sK-s8-4" value="&lt;table&gt;&lt;tbody&gt;&lt;tr&gt;&lt;td&gt;&lt;br&gt;&lt;/td&gt;&lt;td&gt;&lt;br&gt;&lt;/td&gt;&lt;td&gt;&lt;br&gt;&lt;/td&gt;&lt;td&gt;&lt;br&gt;&lt;/td&gt;&lt;td&gt;&lt;br&gt;&lt;/td&gt;&lt;td&gt;&lt;br&gt;&lt;/td&gt;&lt;/tr&gt;&lt;/tbody&gt;&lt;/table&gt;" style="rounded=0;whiteSpace=wrap;html=1;glass=0;shadow=0;" vertex="1" parent="1">
          <mxGeometry x="-800" y="40" width="400" height="400" as="geometry" />
        </mxCell>
        <mxCell id="a2oSXQ1qvIxGom9sK-s8-5" value="" style="rounded=1;whiteSpace=wrap;html=1;shadow=0;glass=0;fillColor=#f5f5f5;strokeColor=#666666;fontColor=#333333;" vertex="1" parent="1">
          <mxGeometry x="-740" y="105" width="280" height="270" as="geometry" />
        </mxCell>
        <mxCell id="a2oSXQ1qvIxGom9sK-s8-6" value="" style="rounded=0;whiteSpace=wrap;html=1;shadow=0;glass=0;" vertex="1" parent="1">
          <mxGeometry x="-665" y="225" width="130" height="30" as="geometry" />
        </mxCell>
        <mxCell id="a2oSXQ1qvIxGom9sK-s8-7" value="" style="rounded=0;whiteSpace=wrap;html=1;shadow=0;glass=0;arcSize=50;" vertex="1" parent="1">
          <mxGeometry x="-665" y="280" width="130" height="30" as="geometry" />
        </mxCell>
        <mxCell id="a2oSXQ1qvIxGom9sK-s8-9" value="Username" style="text;html=1;strokeColor=none;fillColor=none;align=center;verticalAlign=middle;whiteSpace=wrap;rounded=0;shadow=0;glass=0;" vertex="1" parent="1">
          <mxGeometry x="-620" y="200" width="40" height="20" as="geometry" />
        </mxCell>
        <mxCell id="a2oSXQ1qvIxGom9sK-s8-10" value="Password" style="text;html=1;strokeColor=none;fillColor=none;align=center;verticalAlign=middle;whiteSpace=wrap;rounded=0;shadow=0;glass=0;" vertex="1" parent="1">
          <mxGeometry x="-620" y="260" width="40" height="20" as="geometry" />
        </mxCell>
        <mxCell id="a2oSXQ1qvIxGom9sK-s8-11" value="Login" style="rounded=1;whiteSpace=wrap;html=1;shadow=0;glass=0;fillColor=#dae8fc;strokeColor=#6c8ebf;" vertex="1" parent="1">
          <mxGeometry x="-630" y="330" width="60" height="20" as="geometry" />
        </mxCell>
        <mxCell id="a2oSXQ1qvIxGom9sK-s8-13" value="Jika belum punya akun, klik &lt;u&gt;Daftar&lt;/u&gt;" style="text;html=1;strokeColor=none;fillColor=none;align=center;verticalAlign=middle;whiteSpace=wrap;rounded=0;shadow=0;glass=0;" vertex="1" parent="1">
          <mxGeometry x="-680" y="380" width="160" height="20" as="geometry" />
        </mxCell>
        <mxCell id="a2oSXQ1qvIxGom9sK-s8-14" value="&lt;table&gt;&lt;tbody&gt;&lt;tr&gt;&lt;td&gt;&lt;br&gt;&lt;/td&gt;&lt;td&gt;&lt;br&gt;&lt;/td&gt;&lt;td&gt;&lt;br&gt;&lt;/td&gt;&lt;td&gt;&lt;br&gt;&lt;/td&gt;&lt;td&gt;&lt;br&gt;&lt;/td&gt;&lt;td&gt;&lt;br&gt;&lt;/td&gt;&lt;/tr&gt;&lt;/tbody&gt;&lt;/table&gt;" style="rounded=0;whiteSpace=wrap;html=1;glass=0;shadow=0;" vertex="1" parent="1">
          <mxGeometry x="-320" y="40" width="400" height="400" as="geometry" />
        </mxCell>
        <mxCell id="a2oSXQ1qvIxGom9sK-s8-17" value="Home" style="rounded=1;whiteSpace=wrap;html=1;shadow=0;glass=0;" vertex="1" parent="1">
          <mxGeometry x="-320" y="80" width="100" height="30" as="geometry" />
        </mxCell>
        <mxCell id="a2oSXQ1qvIxGom9sK-s8-18" value="Pengarsipan Surat" style="text;html=1;strokeColor=none;fillColor=none;align=center;verticalAlign=middle;whiteSpace=wrap;rounded=0;shadow=0;glass=0;fontStyle=1;labelPosition=center;verticalLabelPosition=middle;" vertex="1" parent="1">
          <mxGeometry x="-280" y="40" width="110" height="40" as="geometry" />
        </mxCell>
        <mxCell id="a2oSXQ1qvIxGom9sK-s8-19" value="logo" style="ellipse;whiteSpace=wrap;html=1;aspect=fixed;rounded=0;shadow=0;glass=0;" vertex="1" parent="1">
          <mxGeometry x="-320" y="40" width="40" height="40" as="geometry" />
        </mxCell>
        <mxCell id="a2oSXQ1qvIxGom9sK-s8-21" value="logo" style="ellipse;whiteSpace=wrap;html=1;aspect=fixed;rounded=0;shadow=0;glass=0;" vertex="1" parent="1">
          <mxGeometry x="-640" y="120" width="80" height="80" as="geometry" />
        </mxCell>
        <mxCell id="a2oSXQ1qvIxGom9sK-s8-22" value="" style="rounded=1;whiteSpace=wrap;html=1;shadow=0;glass=0;" vertex="1" parent="1">
          <mxGeometry x="-220" y="80" width="100" height="30" as="geometry" />
        </mxCell>
        <mxCell id="a2oSXQ1qvIxGom9sK-s8-23" value="" style="rounded=1;whiteSpace=wrap;html=1;shadow=0;glass=0;" vertex="1" parent="1">
          <mxGeometry x="-120" y="80" width="100" height="30" as="geometry" />
        </mxCell>
        <mxCell id="a2oSXQ1qvIxGom9sK-s8-24" value="Logout" style="rounded=1;whiteSpace=wrap;html=1;shadow=0;glass=0;" vertex="1" parent="1">
          <mxGeometry x="-20" y="80" width="100" height="30" as="geometry" />
        </mxCell>
      </root>
    </mxGraphModel>
  </diagram>
</mxfile>
